<svg xmlns="http://www.w3.org/2000/svg" xmlns:xlink="http://www.w3.org/1999/xlink" width="60" zoomAndPan="magnify" viewBox="0 0 45 44.999999" height="60" preserveAspectRatio="xMidYMid meet" version="1.0"><defs><clipPath id="d2a72dd7b3"><path d="M 19.457031 19.796875 L 25.457031 19.796875 L 25.457031 25.046875 L 19.457031 25.046875 Z M 19.457031 19.796875 " clip-rule="nonzero"/></clipPath></defs><g clip-path="url(#d2a72dd7b3)"><path fill="#000000" d="M 24.765625 20.128906 C 24.695312 19.933594 24.507812 19.796875 24.289062 19.796875 L 20.628906 19.796875 C 20.410156 19.796875 20.222656 19.933594 20.152344 20.128906 L 19.460938 22.09375 L 19.460938 24.71875 C 19.460938 24.898438 19.609375 25.046875 19.792969 25.046875 L 20.128906 25.046875 C 20.3125 25.046875 20.460938 24.898438 20.460938 24.71875 L 20.460938 24.390625 L 24.457031 24.390625 L 24.457031 24.71875 C 24.457031 24.898438 24.609375 25.046875 24.789062 25.046875 L 25.125 25.046875 C 25.308594 25.046875 25.457031 24.898438 25.457031 24.71875 L 25.457031 22.09375 Z M 20.628906 23.40625 C 20.351562 23.40625 20.128906 23.1875 20.128906 22.914062 C 20.128906 22.640625 20.351562 22.421875 20.628906 22.421875 C 20.902344 22.421875 21.125 22.640625 21.125 22.914062 C 21.125 23.1875 20.902344 23.40625 20.628906 23.40625 Z M 24.289062 23.40625 C 24.015625 23.40625 23.792969 23.1875 23.792969 22.914062 C 23.792969 22.640625 24.015625 22.421875 24.289062 22.421875 C 24.566406 22.421875 24.789062 22.640625 24.789062 22.914062 C 24.789062 23.1875 24.566406 23.40625 24.289062 23.40625 Z M 20.128906 21.765625 L 20.628906 20.289062 L 24.289062 20.289062 L 24.789062 21.765625 Z M 20.128906 21.765625 " fill-opacity="1" fill-rule="nonzero"/></g><path fill="#f3803f" d="M 22.5 14.316406 C 17.980469 14.316406 14.316406 17.980469 14.316406 22.5 C 14.316406 27.019531 17.980469 30.683594 22.5 30.683594 C 27.019531 30.683594 30.683594 27.019531 30.683594 22.5 C 30.683594 17.980469 27.019531 14.316406 22.5 14.316406 Z M 40.785156 20.453125 C 39.84375 11.925781 33.074219 5.15625 24.546875 4.214844 L 24.546875 0 L 20.453125 0 L 20.453125 4.214844 C 11.925781 5.15625 5.15625 11.925781 4.214844 20.453125 L 0 20.453125 L 0 24.546875 L 4.214844 24.546875 C 5.15625 33.074219 11.925781 39.84375 20.453125 40.785156 L 20.453125 45 L 24.546875 45 L 24.546875 40.785156 C 33.074219 39.84375 39.84375 33.074219 40.785156 24.546875 L 45 24.546875 L 45 20.453125 Z M 22.5 36.816406 C 14.59375 36.816406 8.183594 30.40625 8.183594 22.5 C 8.183594 14.59375 14.59375 8.183594 22.5 8.183594 C 30.40625 8.183594 36.816406 14.59375 36.816406 22.5 C 36.816406 30.40625 30.40625 36.816406 22.5 36.816406 Z M 22.5 36.816406 " fill-opacity="1" fill-rule="nonzero"/></svg>